Coordinates
version=1
nRows=21
nColumns=33
inDegrees=yes

Units are S.I. units (second, meters, Newtons, ...)
Angles are in degrees.

endheader
time	ground_thorax_rot_x	ground_thorax_rot_y	ground_thorax_rot_z	ground_thorax_tx	ground_thorax_ty	ground_thorax_tz	clav_prot_r	clav_elev_r	scapula_abduction_r	scapula_elevation_r	scapula_upward_rot_r	scapula_winging_r	shoulder_elv_r	plane_of_elev_r	axial_rot_r	elbow_flexion_r	pro_sup_r	wrist_flex_r	wrist_dev_r	clav_prot_l	clav_elev_l	scapula_abduction_l	scapula_elevation_l	scapula_upward_rot_l	scapula_winging_l	shoulder_elv_l	plane_of_elev_l	axial_rot_l	elbow_flexion_l	pro_sup_l	wrist_flex_l	wrist_dev_l
      6.87000000	     31.23118968	     26.19915437	     34.39783646	    -86.97893643	    851.01701239	    -46.76410125	     12.75185546	     33.93697797	     26.49855418	     45.00000000	    -45.00000000	    990.31373999	  -2086.66104500	     21.57593497	   -161.05731974	   1798.56418135	   -205.05301965	     13.37460247	     14.95102288	     -6.35220719	    -45.00000000	    -39.91452108	     45.00000000	    -45.00000000	  -5653.58731405	  -1361.01897452	     25.53229749	     27.20227817	   1430.01064098	     40.40047257	     14.51172803	    -19.12501323
      6.88000000	     31.27487756	     26.04826291	     34.27752936	    -87.52114397	    851.78302998	    -47.08193464	     12.64084418	     33.98981426	     26.67951109	     45.00000000	    -45.00000000	    990.19424172	  -2086.78574564	     21.61671863	   -161.22776237	   1798.46984985	   -204.93398733	     13.49556111	     15.06534279	     -6.21379822	    -45.00000000	    -39.92988121	     45.00000000	    -45.00000000	  -5653.44326053	  -1361.16897031	     25.63099712	     27.25923560	   1430.10762669	     40.28832281	     14.66690549	    -19.23615508
      6.89000000	     31.32362645	     25.98721870	     34.08179314	    -88.04891817	    852.46194506	    -47.40907630	     12.62473579	     33.91730861	     26.63746887	     45.00000000	    -45.00000000	    990.20260339	  -2086.78806886	     21.61306874	   -161.38967910	   1798.33761278	   -204.82876411	     13.59608960	     15.11702480	     -6.23396061	    -45.00000000	    -40.05843341	     45.00000000	    -45.00000000	  -5653.49653448	  -1361.31788237	     25.64426041	     27.34728151	   1430.13983223	     40.19784138	     14.70351760	    -19.23603521
      6.90000000	     31.16529602	     26.07537224	     34.34008457	    -88.55687629	    853.05442701	    -47.73653892	     12.61646315	     33.96704221	     26.58979077	     45.00000000	    -45.00000000	    990.17246215	  -2086.81547164	     21.63924322	   -161.62071345	   1798.42072476	   -204.75185463	     13.69766259	     15.00467441	     -6.13876375	    -45.00000000	    -39.90992867	     45.00000000	    -45.00000000	  -5653.37065070	  -1361.08259212	     25.70458653	     27.31212592	   1429.97327513	     40.13840101	     14.74027355	    -19.17814935
      6.91000000	     31.34544458	     25.91028731	     33.94051969	    -89.04812140	    853.56750426	    -48.06218169	     12.55985452	     33.83457398	     26.57579543	     45.00000000	    -45.00000000	    990.20031837	  -2086.80683900	     21.62304829	   -161.67926793	   1798.18372110	   -204.59119476	     13.80179803	     15.13063722	     -6.15201944	    -45.00000000	    -40.20979352	     45.00000000	    -45.00000000	  -5653.44000020	  -1361.44277172	     25.59151508	     27.34592129	   1430.24522679	     40.01735560	     14.73112950	    -19.28911206
      6.92000000	     31.12894488	     25.99653722	     34.27581315	    -89.52176288	    854.00553472	    -48.38217244	     12.59629103	     33.85955582	     26.44615447	     45.00000000	    -45.00000000	    990.20358558	  -2086.81743135	     21.70283880	   -161.86280529	   1798.24012115	   -204.45359196	     13.89712625	     15.01341442	     -6.07995405	    -45.00000000	    -40.05171453	     45.00000000	    -45.00000000	  -5653.31689323	  -1361.19594873	     25.58822259	     27.30208076	   1430.10943645	     39.96552481	     14.69818408	    -19.22545987
      6.93000000	     31.19920980	     25.91800587	     34.15535423	    -89.97514247	    854.37039204	    -48.69489542	     12.48487637	     33.88921632	     26.54663524	     45.00000000	    -45.00000000	    990.20928528	  -2086.90142211	     21.62794313	   -161.98892988	   1798.21834725	   -204.31082101	     14.09819535	     14.92056138	     -6.03955190	    -45.00000000	    -39.98844768	     45.00000000	    -45.00000000	  -5653.21322096	  -1361.27041209	     25.72394818	     27.32018946	   1430.03818196	     39.92098826	     14.81483851	    -19.35801522
      6.94000000	     31.01123003	     26.08889082	     34.38168231	    -90.40123431	    854.66549523	    -48.99759332	     12.62908689	     33.80714455	     26.22311697	     45.00000000	    -45.00000000	    990.17563538	  -2086.79135908	     21.74904957	   -162.08972133	   1798.17798251	   -204.10722098	     14.09122845	     14.94555770	     -6.12326860	    -45.00000000	    -40.09139083	     45.00000000	    -45.00000000	  -5653.30938930	  -1361.18367089	     25.52473519	     27.26967958	   1430.11114880	     39.87406418	     14.59327216	    -19.26226099
      6.95000000	     31.08827963	     25.90225475	     34.26090859	    -90.79879478	    854.90027644	    -49.29409679	     12.48724091	     33.82888130	     26.38054591	     45.00000000	    -45.00000000	    990.26331648	  -2086.89281650	     21.67918344	   -162.15420131	   1798.17286061	   -203.87441227	     14.30807903	     14.84021404	     -5.98162819	    -45.00000000	    -40.03754004	     45.00000000	    -45.00000000	  -5653.15771767	  -1361.30788709	     25.63602717	     27.24177480	   1430.05759492	     39.85449959	     14.75419130	    -19.45228405
      6.96000000	     30.97236749	     26.00498530	     34.43078345	    -91.15176423	    855.07845987	    -49.57824592	     12.51867254	     33.79751379	     26.24360951	     45.00000000	    -45.00000000	    990.20404068	  -2086.86187406	     21.71328819	   -162.27513984	   1798.13724552	   -203.64850067	     14.42312586	     14.78612738	     -6.05279704	    -45.00000000	    -40.01460049	     45.00000000	    -45.00000000	  -5653.18945899	  -1361.21632464	     25.59392197	     27.19179887	   1430.02390594	     39.83033684	     14.58677603	    -19.47721269
      6.97000000	     31.06644725	     25.84773169	     34.25579264	    -91.45873150	    855.21283299	    -49.85364209	     12.41414073	     33.79366161	     26.37611816	     45.00000000	    -45.00000000	    990.27518661	  -2086.92807742	     21.61366159	   -162.33614800	   1798.06829964	   -203.38391949	     14.58723178	     14.73751250	     -5.91311406	    -45.00000000	    -40.02126658	     45.00000000	    -45.00000000	  -5653.08756299	  -1361.40188141	     25.67631311	     27.18774183	   1430.11574909	     39.81832335	     14.76366770	    -19.69117393
      6.98000000	     30.79908822	     26.09791540	     34.67245591	    -91.71508965	    855.31246647	    -50.11987949	     12.56050779	     33.76668125	     26.02487196	     45.00000000	    -45.00000000	    990.24561988	  -2086.84701627	     21.79359624	   -162.42712129	   1798.18641684	   -203.09980767	     14.62214614	     14.64949787	     -6.08050226	    -45.00000000	    -40.02012724	     45.00000000	    -45.00000000	  -5653.16472180	  -1361.17550032	     25.50505762	     27.07653208	   1429.95473299	     39.81590340	     14.40609462	    -19.58797046
      6.99000000	     31.05110439	     25.72211441	     34.25003334	    -91.91569586	    855.38357946	    -50.37168288	     12.31689445	     33.76285025	     26.44255268	     45.00000000	    -45.00000000	    990.37871740	  -2086.98809121	     21.56731665	   -162.46544105	   1798.01172758	   -202.77324132	     14.85246548	     14.62261051	     -5.81436713	    -45.00000000	    -40.01105615	     45.00000000	    -45.00000000	  -5653.03578640	  -1361.54307896	     25.69400940	     27.07196857	   1430.06592617	     39.81929077	     14.80874715	    -19.94984417
      7.00000000	     30.82135206	     25.95995395	     34.57768192	    -92.06723473	    855.43287588	    -50.61307610	     12.44122315	     33.69349829	     26.14353252	     45.00000000	    -45.00000000	    990.29670736	  -2086.92741091	     21.68202979	   -162.55952272	   1798.02420461	   -202.38368962	     14.88881894	     14.62383905	     -5.93970816	    -45.00000000	    -40.02979528	     45.00000000	    -45.00000000	  -5653.08116501	  -1361.36969339	     25.51903983	     26.98282357	   1430.11695777	     39.79153269	     14.42950346	    -19.87933223
      7.01000000	     30.76890184	     25.99063605	     34.67191324	    -92.16826610	    855.46059481	    -50.83488693	     12.42984000	     33.80476405	     26.08799701	     45.00000000	    -45.00000000	    990.35720267	  -2086.97705884	     21.67647697	   -162.68294957	   1798.08497754	   -202.10133117	     15.14091240	     14.33845542	     -5.93088201	    -45.00000000	    -39.93590176	     45.00000000	    -45.00000000	  -5652.99222674	  -1361.34665091	     25.65089669	     26.94197441	   1429.95201606	     39.80271179	     14.59555823	    -20.11982067
      7.02000000	     30.74718751	     26.00807076	     34.70646139	    -92.22518754	    855.46656116	    -51.03765181	     12.42170955	     33.60351028	     26.09655892	     45.00000000	    -45.00000000	    990.32839045	  -2086.95595971	     21.65492177	   -162.68709261	   1797.96076143	   -201.67741730	     15.06701555	     14.63072819	     -5.95719784	    -45.00000000	    -40.05971149	     45.00000000	    -45.00000000	  -5653.13148928	  -1361.49626625	     25.40985467	     26.87445750	   1430.10990035	     39.78087330	     14.27465778	    -20.01607743
      7.03000000	     30.64315174	     26.03851140	     34.85524223	    -92.24046684	    855.44839739	    -51.21041030	     12.41766449	     33.87167368	     25.99292939	     45.00000000	    -45.00000000	    990.44297561	  -2087.01558273	     21.69848301	   -162.84007904	   1798.14697532	   -201.44639165	     15.50408162	     14.01289486	     -5.89012036	    -45.00000000	    -39.82941006	     45.00000000	    -45.00000000	  -5652.92450533	  -1361.36569144	     25.73796191	     26.85745905	   1429.81060642	     39.81636498	     14.68021485	    -20.41651601
      7.04000000	     30.59254390	     26.01221212	     34.97697426	    -92.21951383	    855.39903594	    -51.37506140	     12.40147323	     33.63228131	     26.05560563	     45.00000000	    -45.00000000	    990.39125513	  -2086.97232931	     21.69912032	   -162.87003370	   1797.97233193	   -200.91699570	     15.38054566	     14.38817155	     -5.91023800	    -45.00000000	    -39.88817163	     45.00000000	    -45.00000000	  -5653.01483964	  -1361.41471520	     25.48315889	     26.79413971	   1429.97202668	     39.82111708	     14.29992469	    -20.20953447
      7.05000000	     30.57767613	     26.00461208	     34.92338037	    -92.16440264	    855.31684749	    -51.50468401	     12.39218599	     33.77057182	     25.97119231	     45.00000000	    -45.00000000	    990.48523645	  -2087.03249546	     21.69271106	   -162.95149968	   1798.00246735	   -200.57598167	     15.73484107	     14.06121723	     -5.96560103	    -45.00000000	    -40.00316315	     45.00000000	    -45.00000000	  -5652.98409605	  -1361.56867585	     25.52231914	     26.82130459	   1429.94839810	     39.82454116	     14.49120278	    -20.61846112
      7.06000000	     30.47563460	     26.08668555	     35.17910693	    -92.08062807	    855.19682652	    -51.60859797	     12.37355954	     33.56207202	     26.00260168	     45.00000000	    -45.00000000	    990.43922144	  -2086.99334028	     21.67219492	   -162.98357179	   1797.97974632	   -200.10293797	     15.57101557	     14.33110833	     -5.93289684	    -45.00000000	    -39.79894868	     45.00000000	    -45.00000000	  -5653.06241127	  -1361.47079573	     25.46564665	     26.75224683	   1429.90617099	     39.90003559	     14.18206517	    -20.32869673
      7.07000000	     30.50178402	     26.02489804	     35.06125035	    -91.97220804	    855.03431635	    -51.68878902	     12.36925125	     33.78618417	     25.91446979	     45.00000000	    -45.00000000	    990.56690583	  -2087.07773757	     21.69414619	   -163.07107202	   1798.02082547	   -199.75985993	     16.01773280	     13.88509181	     -5.99625703	    -45.00000000	    -39.95566260	     45.00000000	    -45.00000000	  -5653.00234788	  -1361.66367188	     25.53505141	     26.80720554	   1429.85847621	     39.94107658	     14.48657497	    -20.84727580
